<svg id="alien" xmlns="http://www.w3.org/2000/svg" viewBox="0 0 239.01 386.63"><defs><style>.cls-1{fill:#1d1d1b;}.cls-2{fill:#f39200;}.cls-3{fill:#e7e2de;}.cls-4{fill:#2a2f42;}.cls-5{fill:#e7e0da;}.cls-6{fill:#ccc0b0;}.cls-7{fill:#dad1c5;}.cls-8{fill:#b6aca3;}.cls-9{fill:#d5ccc5;}.cls-10{fill:#cac1ba;}</style></defs><g id="alien-sign"><rect class="cls-1" x="58.42" y="93.25" width="3.73" height="104.8" rx="0.7"/><circle id="alien-sign-circle" class="cls-2" cx="58.42" cy="58.42" r="58.42"/></g><g id="alien-body"><path class="cls-3" d="M436.43,336.77V255.42c.87,2.29,3.85,9.06,8.15,9.06s7.57-7,8.8-9.88v82.17a8.48,8.48,0,1,1-16.95,0Z" transform="translate(-268.6 -120.18)"/><path class="cls-3" d="M489,189.91a27.8,27.8,0,0,1-5.79,21.73,5.77,5.77,0,0,1-.48.61,37.71,37.71,0,0,1-9.67,8.21,2,2,0,0,0-.19.11s-.05,0-.08.05-.1.42-.24.93c-.05.18-.13.42-.18.69-1.54,5.37-7.17,22.85-17.51,31.24l-.74.59-.53.37a.67.67,0,0,1-.14.11l0,0a18.14,18.14,0,0,1-10.55,3.51,10.47,10.47,0,0,1-6.4-2.66v0c-.48-.35-.93-.75-1.41-1.17a41.89,41.89,0,0,1-5.29-6.22c-.11-.13-.19-.27-.29-.4A92,92,0,0,1,423,236.67c-.27-.51-.56-1-.83-1.57-3.85-7.76-6.32-14.48-6.32-14.48a40,40,0,0,1-9.7-9.35l0-.06a31.31,31.31,0,0,1-6.49-18s-14.13-60.38,43.49-64.16C443.09,129.09,497.8,127.63,489,189.91Z" transform="translate(-268.6 -120.18)"/><ellipse class="cls-4" cx="421.44" cy="200.54" rx="13.14" ry="20.14" transform="translate(-275.68 265.3) rotate(-48.79)"/><ellipse class="cls-4" cx="468.6" cy="200.54" rx="20.14" ry="13.14" transform="translate(-284.66 238.21) rotate(-41.21)"/><ellipse class="cls-5" cx="416.71" cy="190.67" rx="1.79" ry="3.6" transform="translate(-291 201.58) rotate(-41.21)"/><ellipse class="cls-5" cx="474.65" cy="189.84" rx="3.6" ry="1.79" transform="translate(-249.48 301.69) rotate(-48.79)"/><path class="cls-3" d="M468.77,381l-7.94-2c-6.44-1.61-11.9,9.64-12.1,22.86l-1.56,100.38c0,1.61,1.54,3.26,3.48,3.75l2.39.6c1.94.48,3.76-.32,4.06-1.86l18.59-96.12C478.14,396,475.21,382.62,468.77,381Z" transform="translate(-268.6 -120.18)"/><path class="cls-3" d="M431.35,300a2.48,2.48,0,0,0,.22-.38q.17-.3.3-.6a8.58,8.58,0,0,0,.69-2.19,10,10,0,0,0-14.81-10.28s0,0,0,0a8.84,8.84,0,0,0-2.9,2.75L379.9,341.74l-47.69-56.67c-1.25-1.49-4.37-1.07-6.94.93-2.07,1.59-3.26,3.77-3.06,5.39a.55.55,0,0,0,0,.17.7.7,0,0,0,.05.25,2.22,2.22,0,0,0,.31.66l46.26,65.85,3.36,4.8a9.1,9.1,0,0,0,5.74,3.71L389,353l28.24-35.26s0,0,0,0l.65-.8Z" transform="translate(-268.6 -120.18)"/><path class="cls-3" d="M507.62,339.41l-8.17,13-17.24,27.37c-1,1.67-4.18,1.66-7,.05s-4.42-4.31-3.54-6l17.91-34.84-30.51-41.63a9.65,9.65,0,0,1,2.7-13.65,10,10,0,0,1,6.2-1.7,9.3,9.3,0,0,1,7.45,4.42L497.7,323.1Z" transform="translate(-268.6 -120.18)"/><path class="cls-3" d="M421.05,380.7l8-1.76c6.48-1.43,11.62,10,11.46,23.2l-1.27,100.38c0,1.61-1.63,3.22-3.59,3.65l-2.4.53c-2,.43-3.75-.42-4-2l-15.88-96.6C411.26,395.4,414.57,382.13,421.05,380.7Z" transform="translate(-268.6 -120.18)"/><path class="cls-3" d="M444.56,414.33h0a16.37,16.37,0,0,1-11.57-4.8l-11.45-11.44A30.28,30.28,0,0,1,412.77,379a9.07,9.07,0,0,1,.87-4.34c9.8-21.83,8.76-45-.28-69.09a8.88,8.88,0,0,1-.62-3.67,32,32,0,0,1,31.82-30h0a32,32,0,0,1,31.86,30.59,9.89,9.89,0,0,1-.27,2.54c-5,21.06-10,42.11-.3,70.65a9.14,9.14,0,0,1,.54,3.47,28.65,28.65,0,0,1-8.34,18.49l-11.91,11.91A16.39,16.39,0,0,1,444.56,414.33Z" transform="translate(-268.6 -120.18)"/></g><g id="alien-shadow"><path class="cls-6" d="M406.28,187.27c4.78-5.46,15.45-4,23.82,3.38,5.29,4.64,8.39,10.48,8.75,15.54.35-5.42-2.82-12.13-8.75-17.32-8.37-7.33-19-8.85-23.82-3.39a10.2,10.2,0,0,0-2.26,7.63A9.68,9.68,0,0,1,406.28,187.27Z" transform="translate(-268.6 -120.18)"/><path class="cls-6" d="M459.94,190.65c8.37-7.33,19-8.84,23.81-3.38a9.54,9.54,0,0,1,2.24,5.58,10.28,10.28,0,0,0-2.24-7.91c-4.78-5.46-15.44-3.94-23.81,3.39-6,5.27-9.2,12.11-8.73,17.57C451.66,200.91,454.75,195.2,459.94,190.65Z" transform="translate(-268.6 -120.18)"/><ellipse class="cls-6" cx="405.01" cy="171.14" rx="4.21" ry="1.79" transform="translate(-160.48 375.28) rotate(-70.44)"/><ellipse class="cls-6" cx="411.12" cy="176.55" rx="3.05" ry="1.37" transform="translate(-161.51 384.64) rotate(-70.44)"/><ellipse class="cls-6" cx="479.2" cy="176.55" rx="1.37" ry="3.05" transform="translate(-300.06 50.48) rotate(-19.56)"/><path class="cls-7" d="M454.08,186.13l-8.77,9.08-9.08-8.77C442.3,190.11,448.24,189.79,454.08,186.13Z" transform="translate(-268.6 -120.18)"/><path class="cls-8" d="M451.49,241.66c-5.16,1.15-12.67,0-12.67,0l3.53-2.38,2.8.79,3-.79Z" transform="translate(-268.6 -120.18)"/><ellipse class="cls-8" cx="442.03" cy="222.41" rx="2.61" ry="1.65" transform="translate(-145.91 480.23) rotate(-76.52)"/><ellipse class="cls-8" cx="449.02" cy="222.41" rx="1.65" ry="2.61" transform="translate(-308.08 -9.37) rotate(-13.48)"/><path class="cls-9" d="M435,254.22c-4.08-3.52-8.42-10.62-12.87-19.12-3.85-7.76-6.34-14.48-6.34-14.48a40.35,40.35,0,0,1-9.68-9.36c.65.59,12.53,11.19,23.16,8.6,0,0-2.95,4.12-7.12,4.12C424.8,224.38,433.91,227.64,435,254.22Z" transform="translate(-268.6 -120.18)"/><path class="cls-9" d="M453.54,254.45c4.53-3,9.79-9.56,13.72-18.58a74,74,0,0,0,5.5-15.27,31.82,31.82,0,0,0,10.41-9c-.65.6-13.26,10.79-23.89,8.21,0,0,3,4.12,7.12,4.12C463.76,224.36,454.65,227.87,453.54,254.45Z" transform="translate(-268.6 -120.18)"/><path class="cls-10" d="M453.38,254.57v0c-1.23,2.87-4.65,9.88-8.8,9.88s-7.28-6.77-8.15-9.06a10.47,10.47,0,0,0,6.4,2.66A18.14,18.14,0,0,0,453.38,254.57Z" transform="translate(-268.6 -120.18)"/><path class="cls-9" d="M468.37,395.59,456.46,407.5a16.37,16.37,0,0,1-23.14,0l-11.45-11.45a30.25,30.25,0,0,1-8.78-19.11,6.57,6.57,0,0,1,0-.77,8,8,0,0,0-.33,2.8,30.28,30.28,0,0,0,8.77,19.12L433,409.53a16.36,16.36,0,0,0,23.15,0l11.91-11.91a28.67,28.67,0,0,0,8.16-16.79A28.65,28.65,0,0,1,468.37,395.59Z" transform="translate(-268.6 -120.18)"/><path class="cls-9" d="M472,324.18c1.11-6.52,2.6-12.85,4.11-19.17a9.22,9.22,0,0,0,.23-1.66C474.76,310.2,473.15,317.06,472,324.18Z" transform="translate(-268.6 -120.18)"/><path class="cls-9" d="M419.8,353.28c2.66-16,.31-32.65-6.11-49.78a9.05,9.05,0,0,1-.63-3.67c.05-.71.14-1.4.23-2.1a31.46,31.46,0,0,0-.55,4.14,8.88,8.88,0,0,0,.62,3.67C419.51,321.94,421.94,337.88,419.8,353.28Z" transform="translate(-268.6 -120.18)"/><path class="cls-10" d="M465.42,282.33,448,285.71a.65.65,0,0,1-.79-.41h0c-.05-.3.32-.21.69-.29l16.91-5c.38-.07,1.17,1.37,1.23,1.66h0A.64.64,0,0,1,465.42,282.33Z" transform="translate(-268.6 -120.18)"/><path class="cls-10" d="M439.8,270.91s1.76,9.24,4.9,9.79c0,0,3.13.82,5.06-9.62,0,0-.82,11.38-4.91,12.3S439.8,270.91,439.8,270.91Z" transform="translate(-268.6 -120.18)"/><path class="cls-10" d="M423.87,282.33l17.46,3.38a.65.65,0,0,0,.79-.41h0c.05-.3-.32-.21-.69-.29l-16.91-5c-.37-.07-1.17,1.37-1.23,1.66h0A.64.64,0,0,0,423.87,282.33Z" transform="translate(-268.6 -120.18)"/><path class="cls-9" d="M441.5,398.84c-18.08.34-23.85-20-23.85-20s5.88,6.79,10.29-1c0,0-3.85,6.78.34,7.58,0,0,8.81-2.71,9.49,2.94Z" transform="translate(-268.6 -120.18)"/><path class="cls-9" d="M449.05,399.29c18.07-.93,22.4-21.64,22.4-21.64s-5.39,7.19-10.33-.28c0,0,4.3,6.49.19,7.58,0,0-9-2.09-9.27,3.59Z" transform="translate(-268.6 -120.18)"/><ellipse class="cls-9" cx="177.43" cy="252.83" rx="1.13" ry="2.37"/><path class="cls-10" d="M439.34,324.42l3.28-34.24c.07-.74-.12-1.36-.42-1.39h0c-.3,0-.21.65-.28,1.39L437,323.81c-.07.74,1.39,1.87,1.69,1.9h0C439,325.74,439.26,325.16,439.34,324.42Z" transform="translate(-268.6 -120.18)"/><path class="cls-10" d="M450.92,324.52l-3.58-34.43c-.08-.74.1-1.38.4-1.41h0c.31,0,.22.66.3,1.4l5.24,33.81c.08.74-1.37,1.89-1.67,1.92h0C451.31,325.84,451,325.26,450.92,324.52Z" transform="translate(-268.6 -120.18)"/><path class="cls-9" d="M442.51,336.93a23.41,23.41,0,0,1-11.89-4,12.76,12.76,0,0,1-4.51-4.77,10.65,10.65,0,0,1-1.05-6.42l.27,0a57.71,57.71,0,0,0,3.07,5.12,25.69,25.69,0,0,0,3.55,4.45,21.78,21.78,0,0,0,4.9,3.29,25.15,25.15,0,0,0,5.69,2.14Z" transform="translate(-268.6 -120.18)"/><path class="cls-9" d="M441.18,349.22a23.41,23.41,0,0,1-11.89-4,12.76,12.76,0,0,1-4.51-4.77,10.65,10.65,0,0,1-1-6.42L424,334a55,55,0,0,0,3.08,5.12,25.79,25.79,0,0,0,3.54,4.46,21.85,21.85,0,0,0,4.91,3.29,25.15,25.15,0,0,0,5.69,2.14Z" transform="translate(-268.6 -120.18)"/><path class="cls-9" d="M442,362.45a23.38,23.38,0,0,1-11.88-4,12.86,12.86,0,0,1-4.52-4.77,10.72,10.72,0,0,1-1-6.42l.26-.05a54.32,54.32,0,0,0,3.08,5.13,26.11,26.11,0,0,0,3.54,4.45,21.62,21.62,0,0,0,4.91,3.29,25.07,25.07,0,0,0,5.68,2.14Z" transform="translate(-268.6 -120.18)"/><path class="cls-9" d="M448,336.83a25.09,25.09,0,0,0,5.52-2.53,21.35,21.35,0,0,0,4.66-3.63,26,26,0,0,0,3.23-4.68,57.33,57.33,0,0,0,2.71-5.33l.26,0a10.71,10.71,0,0,1-.59,6.48,12.81,12.81,0,0,1-4.17,5.07,23.49,23.49,0,0,1-11.58,4.86Z" transform="translate(-268.6 -120.18)"/><path class="cls-9" d="M450.22,349a25.13,25.13,0,0,0,5.52-2.53,21.65,21.65,0,0,0,4.67-3.63,25.56,25.56,0,0,0,3.22-4.69,52.6,52.6,0,0,0,2.71-5.32l.27,0a10.63,10.63,0,0,1-.6,6.48,12.77,12.77,0,0,1-4.17,5.08,23.4,23.4,0,0,1-11.57,4.85Z" transform="translate(-268.6 -120.18)"/><path class="cls-9" d="M450.28,362.26a25.34,25.34,0,0,0,5.52-2.53,21.35,21.35,0,0,0,4.66-3.63,25.13,25.13,0,0,0,3.23-4.69,54.76,54.76,0,0,0,2.71-5.32l.27,0a10.63,10.63,0,0,1-.6,6.48,12.77,12.77,0,0,1-4.17,5.08,23.4,23.4,0,0,1-11.57,4.85Z" transform="translate(-268.6 -120.18)"/><path class="cls-9" d="M455.13,506.58a4.2,4.2,0,0,1-2.09,0l-2.39-.6c-1.94-.48-3.51-2.13-3.48-3.74l1.37-88.44a14.85,14.85,0,0,0,1.89-.6l-1.38,89c0,1.61,1.54,3.26,3.48,3.75l2.39.6C455,506.58,455.06,506.56,455.13,506.58Z" transform="translate(-268.6 -120.18)"/><path class="cls-9" d="M417.26,317.76h0L389,353,378,366.83a9.1,9.1,0,0,1-5.74-3.71l-3.36-4.8L322.6,292.47a2.22,2.22,0,0,1-.31-.66,1.84,1.84,0,0,1-.05-.25.55.55,0,0,1,0-.17,4.23,4.23,0,0,1,0-.62c0-.18,0-.36.08-.55a6.07,6.07,0,0,1,.46-1.24c.05-.1.1-.2.16-.3a2.55,2.55,0,0,0,.39,1.65l46.26,65.86,3.36,4.8a9.1,9.1,0,0,0,5.74,3.71l11.07-13.81L417,316.81C417.1,317.12,417.18,317.44,417.26,317.76Z" transform="translate(-268.6 -120.18)"/><path class="cls-9" d="M476.56,379.88a9.11,9.11,0,0,0,3,1.1,7.82,7.82,0,0,1-3.31-.65l-.56-.25c-.18-.09-.36-.18-.53-.28-2.83-1.61-4.42-4.32-3.54-6.05l2.25-4.38,15.66-30.45-16.14-22c.09-.46.19-.92.29-1.37L490.93,339l-16.52,32.12-1.4,2.72c-.85,1.68.64,4.29,3.33,5.91Z" transform="translate(-268.6 -120.18)"/><path class="cls-9" d="M433.38,506.66l-.15,0c-2,.44-3.75-.42-4-2l-15.88-96.6c-1.22-7.43-.6-15,1.42-20.37A28.58,28.58,0,0,0,416,390.4a44,44,0,0,0-.58,17.72l15.88,96.6A2.52,2.52,0,0,0,433.38,506.66Z" transform="translate(-268.6 -120.18)"/><ellipse class="cls-6" cx="483.17" cy="169.21" rx="1.79" ry="4.21" transform="translate(-297.37 51.38) rotate(-19.56)"/></g></svg>