<svg id="astronaut" xmlns="http://www.w3.org/2000/svg" viewBox="0 0 190.93 400.73"><defs><style>.cls-1{fill:#c6c6c6;}.cls-1,.cls-10,.cls-2,.cls-4,.cls-6,.cls-7,.cls-8{stroke:#1d1d1b;stroke-miterlimit:10;}.cls-2,.cls-5,.cls-6,.cls-8{fill:#fff;}.cls-3,.cls-4{fill:#1d1d1b;}.cls-4,.cls-6{stroke-width:0.25px;}.cls-10,.cls-7,.cls-9{fill:none;}.cls-7{stroke-width:0.75px;}.cls-10,.cls-8{stroke-width:0.5px;}</style></defs><g id="astronaut-right-palm"><rect class="cls-1" x="330.52" y="325.94" width="30.53" height="58.46" rx="2.86" transform="translate(408.81 544.62) rotate(172.64)"/><circle class="cls-2" cx="25.72" cy="278.14" r="16.86"/><path class="cls-3" d="M333.46,371.14a4,4,0,0,0,4.67,3l.4-.07.29-.29c5.67-5.57,11.85-6.49,18.9-2.87l.37.2.42-.05a3.93,3.93,0,0,0,3.53-4.26,3.85,3.85,0,0,0-4.31-3,22.12,22.12,0,0,0-21,3.17A3.91,3.91,0,0,0,333.46,371.14Zm3.94-1.66.33,0,.26-.2a19.44,19.44,0,0,1,19.18-2.9l.3.09.33-.05c.91-.13,1.63.33,1.71.82a1.3,1.3,0,0,1-1,1.23c-7.74-3.85-14.84-2.77-21.13,3.17a1.24,1.24,0,0,1-1.31-.84C336,370.28,336.5,369.61,337.4,369.48Z" transform="translate(-325.43 -118.48)"/></g><g id="astronaut-left-palm"><rect class="cls-1" x="480.46" y="328.52" width="30.53" height="58.46" rx="2.86" transform="translate(588.2 685.48) rotate(-168.94)"/><circle class="cls-2" cx="162.53" cy="279.07" r="16.86"/><path class="cls-3" d="M482.14,370.24l.43.13.4-.2c7.7-2.79,13.94-1.08,19,5.35l.32.36.38.12a3.81,3.81,0,1,0,2.39-7.21,22.82,22.82,0,0,0-21.25-6,4,4,0,0,0-4.81,2.6A4.08,4.08,0,0,0,482.14,370.24Zm-.54-4.07a1.44,1.44,0,0,1,1.84-.64l.35.07.33-.07a20.18,20.18,0,0,1,19.34,5.41l.24.25.32.09c.93.25,1.39,1,1.25,1.51s-.71.74-1.45.67c-5.71-6.92-12.86-8.93-21.33-6A1.33,1.33,0,0,1,481.6,366.17Z" transform="translate(-325.43 -118.48)"/></g><g id="astronaut-right-arm"><rect class="cls-1" x="336.15" y="267.29" width="30.53" height="60.12" rx="2.86" transform="translate(-235.53 -199.97) rotate(15.15)"/><path class="cls-2" d="M359.65,329.14a17.14,17.14,0,0,1-.6,4.5,16.46,16.46,0,0,1-4.62,7.77,16.78,16.78,0,0,1-16.07,4.08,16.94,16.94,0,0,1-11.16-9.81,17,17,0,0,1-.69-10.84,16.82,16.82,0,0,1,19.33-12.17,9.39,9.39,0,0,1,1.36.28A16.86,16.86,0,0,1,359.65,329.14Z" transform="translate(-325.43 -118.48)"/><path class="cls-3" d="M354.43,341.41a16.78,16.78,0,0,1-16.07,4.08,16.45,16.45,0,0,1-8.05-4.93l6.26-7.05,1-1.13c.16-.19.32-.34.48-.5a3.7,3.7,0,0,1,.28-.28,9.49,9.49,0,0,1,3.87-2.11,9.08,9.08,0,0,1,2.73-.41,9.79,9.79,0,0,1,6.54,2.48,9.37,9.37,0,0,1,1.83,2.21A9.9,9.9,0,0,1,354.43,341.41Z" transform="translate(-325.43 -118.48)"/></g><g id="astronaut-left-arm"><rect class="cls-1" x="473.46" y="272.2" width="30.53" height="60.12" rx="2.86" transform="translate(-397.67 59.15) rotate(-19.21)"/><path class="cls-2" d="M515.3,336s0,.09,0,.12a15.83,15.83,0,0,1-2.17,4.78A16.83,16.83,0,0,1,494.58,348a16.27,16.27,0,0,1-4.05-1.73,16.74,16.74,0,0,1-8.27-16.51,16.27,16.27,0,0,1,.47-2.45A16.85,16.85,0,0,1,515.3,336Z" transform="translate(-325.43 -118.48)"/><path class="cls-3" d="M513.1,340.91A16.83,16.83,0,0,1,494.58,348a16.27,16.27,0,0,1-4.05-1.73,9.72,9.72,0,0,1-1.07-11.76,9.05,9.05,0,0,1,1.32-1.7,9.82,9.82,0,0,1,7-2.95,9.49,9.49,0,0,1,4.43,1.07,10.12,10.12,0,0,1,2.46,1.72Z" transform="translate(-325.43 -118.48)"/></g><g id="astronaut-body"><path class="cls-1" d="M479.91,202.75V170.42a9.66,9.66,0,0,1,3.68-7.54,69.45,69.45,0,0,0-129.36.53,10.26,10.26,0,0,1,2.55,1.83,9.5,9.5,0,0,1,2.83,6.79v32.32a9.69,9.69,0,0,1-5.5,8.71,69.46,69.46,0,0,0,130.55-2A9.61,9.61,0,0,1,479.91,202.75ZM419,213.85c-27.55,0-49.87,13-49.87-16.07s22.32-52.54,49.87-52.54,49.84,23.52,49.84,52.54S446.55,213.85,419,213.85Z" transform="translate(-325.43 -118.48)"/><path class="cls-4" d="M359.6,172v32.32a9.69,9.69,0,0,1-5.5,8.71,69.36,69.36,0,0,1,.13-49.65,10.21,10.21,0,0,1,2.54,1.83A9.5,9.5,0,0,1,359.6,172Z" transform="translate(-325.43 -118.48)"/><path class="cls-4" d="M488.43,188.41A68.76,68.76,0,0,1,484.65,211a9.6,9.6,0,0,1-4.74-8.27V170.42a9.65,9.65,0,0,1,3.67-7.54A69.31,69.31,0,0,1,488.43,188.41Z" transform="translate(-325.43 -118.48)"/><circle class="cls-2" cx="38.11" cy="148.32" r="21.94"/><path class="cls-1" d="M471.3,514.57l-36.1,4.09a8.64,8.64,0,0,1-9.53-7.58l-4-35.28-2.45,34.87a8.42,8.42,0,0,1-9,7.8L374,516a8.6,8.6,0,0,1-8-9.18l8-114.2A13.25,13.25,0,0,1,374,391v-3.3l-.69-139.58h1.1a69.34,69.34,0,0,0,88.86-.25h.72l1.51,139.45v1.51c0,.19.06.38.09.6l13.15,115.8A8.43,8.43,0,0,1,471.3,514.57Z" transform="translate(-325.43 -118.48)"/><line class="cls-1" x1="138.51" y1="129.42" x2="137.79" y2="129.42"/><line class="cls-1" x1="48.93" y1="129.67" x2="47.99" y2="129.67"/><circle class="cls-2" cx="148.68" cy="148.32" r="21.94"/><path class="cls-5" d="M428.63,470.82c14.22,6.32,27.42,5.84,39.47-2.19a4.71,4.71,0,0,0,4.41-4.95h0a4.68,4.68,0,0,0-4.9-4.44q-19.1,13.31-39.47,2.19a4.71,4.71,0,0,0-4.41,4.95h0A4.68,4.68,0,0,0,428.63,470.82Z" transform="translate(-325.43 -118.48)"/><path class="cls-3" d="M428.34,472.4a6.28,6.28,0,0,1-.28-12.54l.42,0,.38.2c13.16,7.18,25.55,6.5,37.88-2.1l.36-.24.42,0a6.28,6.28,0,0,1,1.09,12.49,38.43,38.43,0,0,1-19.17,6.49A46.21,46.21,0,0,1,428.34,472.4Zm-.5-9.36a3.13,3.13,0,0,0,.71,6.21l.36,0,.33.15c14.11,6.26,26.54,5.58,38-2.07l.35-.23.41,0a3.13,3.13,0,0,0,.05-6.24C455.15,469.65,441.62,470.4,427.84,463Z" transform="translate(-325.43 -118.48)"/><path class="cls-5" d="M429.41,485.62c14.22,6.32,27.42,5.84,39.47-2.19a4.71,4.71,0,0,0,4.41-4.95h0a4.68,4.68,0,0,0-4.9-4.44q-19.09,13.31-39.47,2.19a4.71,4.71,0,0,0-4.41,4.95h0A4.68,4.68,0,0,0,429.41,485.62Z" transform="translate(-325.43 -118.48)"/><path class="cls-3" d="M429.12,487.2a6.28,6.28,0,0,1-.28-12.54l.42,0,.38.2c13.16,7.18,25.55,6.5,37.88-2.1l.36-.24.42,0A6.28,6.28,0,0,1,469.39,485a38.43,38.43,0,0,1-19.17,6.49A46.21,46.21,0,0,1,429.12,487.2Zm-.5-9.35a3.13,3.13,0,0,0,.71,6.2l.36,0,.33.15c14.11,6.26,26.54,5.58,38-2.07l.35-.22.41,0a3.13,3.13,0,0,0,.05-6.24C455.93,484.45,442.4,485.2,428.62,477.85Z" transform="translate(-325.43 -118.48)"/><path class="cls-5" d="M427.32,456.05c14.22,6.31,27.41,5.84,39.46-2.19a4.71,4.71,0,0,0,4.42-4.95h0a4.69,4.69,0,0,0-4.91-4.44q-19.1,13.3-39.47,2.19a4.71,4.71,0,0,0-4.41,4.95h0A4.69,4.69,0,0,0,427.32,456.05Z" transform="translate(-325.43 -118.48)"/><path class="cls-3" d="M427,457.63a6.28,6.28,0,0,1-.28-12.54l.43,0,.38.21c13.16,7.18,25.55,6.5,37.88-2.1l.35-.24.43,0a6.28,6.28,0,0,1,1.09,12.49,38.5,38.5,0,0,1-19.17,6.49A46.25,46.25,0,0,1,427,457.63Zm-.5-9.36a3.13,3.13,0,0,0,.72,6.21l.36,0,.33.14c14.1,6.27,26.53,5.6,38-2.06l.34-.23.41,0a3.13,3.13,0,0,0,.06-6.24C453.83,454.88,440.3,455.63,426.52,448.27Z" transform="translate(-325.43 -118.48)"/><polygon class="cls-6" points="101.34 334.28 100.04 333.97 99.65 332.67 100.56 331.67 101.85 331.97 102.24 333.28 101.34 334.28"/><polygon class="cls-6" points="102.64 348.88 101.34 348.57 100.95 347.27 101.85 346.27 103.15 346.57 103.54 347.88 102.64 348.88"/><polygon class="cls-6" points="103.93 363.93 102.64 363.63 102.24 362.32 103.15 361.32 104.45 361.63 104.84 362.93 103.93 363.93"/><polygon class="cls-6" points="141.77 332.42 140.47 332.11 140.08 330.81 140.98 329.81 142.28 330.11 142.67 331.42 141.77 332.42"/><polygon class="cls-6" points="143.63 346.57 142.33 346.27 141.94 344.96 142.84 343.96 144.14 344.27 144.53 345.57 143.63 346.57"/><polygon class="cls-6" points="144.64 361.77 143.34 361.46 142.95 360.16 143.85 359.16 145.15 359.46 145.54 360.77 144.64 361.77"/><polygon class="cls-6" points="123.09 338.94 121.79 338.63 121.4 337.33 122.3 336.33 123.6 336.63 123.99 337.94 123.09 338.94"/><polygon class="cls-6" points="123.87 353.29 122.57 352.99 122.18 351.68 123.08 350.68 124.38 350.99 124.77 352.29 123.87 353.29"/><polygon class="cls-6" points="125.42 368.1 124.12 367.79 123.72 366.49 124.63 365.49 125.93 365.79 126.32 367.1 125.42 368.1"/><rect class="cls-3" x="55.79" y="294.28" width="34.12" height="20.61" rx="3.28"/><path class="cls-5" d="M415.05,468.51c-13.65,6.81-26.65,7.06-38.92,0a4.58,4.58,0,0,1-4.59-4.52h0a4.58,4.58,0,0,1,4.59-4.52q19.47,11.76,38.92,0a4.58,4.58,0,0,1,4.6,4.52h0A4.58,4.58,0,0,1,415.05,468.51Z" transform="translate(-325.43 -118.48)"/><path class="cls-3" d="M394.9,475.2a38.51,38.51,0,0,1-19.19-5.2,6,6,0,0,1,.42-12h.42l.36.22c12.58,7.59,24.79,7.59,37.36,0l.36-.22h.42a6,6,0,0,1,.38,12A46.34,46.34,0,0,1,394.9,475.2ZM375.76,461a3,3,0,0,0,.37,6h.41l.35.2c11.68,6.72,23.95,6.71,37.49,0l.32-.16h.35a3,3,0,0,0,.38-6C402.27,468.8,388.92,468.8,375.76,461Z" transform="translate(-325.43 -118.48)"/><path class="cls-5" d="M415.05,482.74c-13.65,6.82-26.65,7.07-38.92,0a4.57,4.57,0,0,1-4.59-4.51h0a4.57,4.57,0,0,1,4.59-4.52q19.47,11.75,38.92,0a4.57,4.57,0,0,1,4.6,4.52h0A4.57,4.57,0,0,1,415.05,482.74Z" transform="translate(-325.43 -118.48)"/><path class="cls-3" d="M394.9,489.44a38.51,38.51,0,0,1-19.19-5.2,6,6,0,0,1,.42-12h.42l.36.22c12.58,7.59,24.79,7.59,37.36,0l.36-.22h.42a6,6,0,0,1,.38,12A46.34,46.34,0,0,1,394.9,489.44Zm-19.14-14.19a3,3,0,0,0,.37,6h.41l.35.2c11.68,6.73,23.95,6.72,37.49,0l.32-.16h.35a3,3,0,0,0,.38-6C402.27,483,388.92,483,375.76,475.25Z" transform="translate(-325.43 -118.48)"/><path class="cls-5" d="M415.58,454.27c-13.65,6.81-26.65,7.06-38.92,0a4.56,4.56,0,0,1-4.59-4.52h0a4.56,4.56,0,0,1,4.59-4.51q19.47,11.75,38.92,0a4.57,4.57,0,0,1,4.6,4.51h0A4.57,4.57,0,0,1,415.58,454.27Z" transform="translate(-325.43 -118.48)"/><path class="cls-3" d="M395.43,461a38.52,38.52,0,0,1-19.19-5.21,6,6,0,0,1,.42-12h.42l.36.22c12.57,7.58,24.79,7.58,37.36,0l.36-.22h.42a6,6,0,0,1,.38,12A46.48,46.48,0,0,1,395.43,461Zm-19.15-14.2a3,3,0,0,0,.38,6h.41l.35.2c11.69,6.73,23.95,6.72,37.49,0l.32-.16h.35a3,3,0,0,0,.38-6C402.79,454.56,389.45,454.56,376.28,446.77Z" transform="translate(-325.43 -118.48)"/><polygon class="cls-6" points="51.79 332.75 50.51 332.46 50.13 331.21 51.02 330.25 52.3 330.54 52.68 331.79 51.79 332.75"/><polygon class="cls-6" points="71.08 337.76 69.8 337.47 69.42 336.22 70.31 335.26 71.59 335.55 71.97 336.81 71.08 337.76"/><polygon class="cls-6" points="90.44 332.75 89.16 332.46 88.78 331.21 89.67 330.25 90.95 330.54 91.33 331.79 90.44 332.75"/><polygon class="cls-6" points="50.92 346.92 49.64 346.63 49.26 345.38 50.15 344.42 51.43 344.71 51.81 345.96 50.92 346.92"/><polygon class="cls-6" points="50.51 360.94 49.23 360.65 48.85 359.4 49.74 358.44 51.02 358.73 51.41 359.98 50.51 360.94"/><polygon class="cls-6" points="90.44 346.92 89.16 346.63 88.78 345.38 89.67 344.42 90.95 344.71 91.33 345.96 90.44 346.92"/><polygon class="cls-6" points="90.44 360.94 89.16 360.65 88.78 359.4 89.67 358.44 90.95 358.73 91.33 359.98 90.44 360.94"/><polygon class="cls-6" points="71.08 352.47 69.8 352.18 69.42 350.92 70.31 349.96 71.59 350.25 71.97 351.51 71.08 352.47"/><polygon class="cls-6" points="70.55 366.4 69.28 366.11 68.89 364.85 69.78 363.89 71.06 364.18 71.45 365.44 70.55 366.4"/><polyline class="cls-7" points="29.22 152.93 30.84 147.09 32.05 142.75 39.14 144.72"/><line class="cls-7" x1="34.39" y1="148.07" x2="30.84" y2="147.09"/><path class="cls-7" d="M473.51,271.28l-3.16-7c1.46-1.28,4.31-2.54,5.17-.23,1,2.7-2.38,3.32-3.23,3.58-.33.3,4.61-1.59,5.69-1.39C480.63,266.68,479.47,270.34,473.51,271.28Z" transform="translate(-325.43 -118.48)"/><rect class="cls-2" x="67.46" y="218.47" width="33.97" height="26.25" rx="2.41"/><path class="cls-2" d="M401.86,284.39a58.43,58.43,0,0,1,0,36.92h-1.7a16.31,16.31,0,0,1-16.26-16.26v-4.4a16.31,16.31,0,0,1,16.26-16.26Z" transform="translate(-325.43 -118.48)"/><path class="cls-2" d="M449.12,300.65v4.4a16.31,16.31,0,0,1-16.26,16.26H410.07c-5.25-12.53-5.45-24.84,0-36.92h22.79A16.31,16.31,0,0,1,449.12,300.65Z" transform="translate(-325.43 -118.48)"/><rect class="cls-8" x="90.95" y="171.82" width="4.06" height="4.06" rx="0.65"/><rect class="cls-8" x="431.32" y="290.31" width="4.06" height="4.06" rx="0.65" transform="translate(566.14 -77.73) rotate(117.23)"/><rect class="cls-8" x="416.37" y="300.82" width="4.06" height="4.06" rx="0.65" transform="translate(553.7 -49.12) rotate(117.23)"/><rect class="cls-8" x="431.21" y="300.82" width="4.06" height="4.06" rx="0.65" transform="translate(575.33 -62.31) rotate(117.23)"/><rect class="cls-8" x="416.37" y="311.33" width="4.06" height="4.06" rx="0.65" transform="translate(563.05 -33.8) rotate(117.23)"/><rect class="cls-8" x="431.32" y="311.33" width="4.06" height="4.06" rx="0.65" transform="translate(584.84 -47.09) rotate(117.23)"/><path class="cls-3" d="M400.93,312.39l-.51-.6-4.05,3.46-2.24-4.59,3.09-2.2,1.51,3.46.72-.32.72-.31-1.63-3.74,2.86-2.05-.44-.62-.47-.63-2.58,1.82-2.08-4.75,3.08-2.32.51,1.16.72-.28.72-.32-.66-1.51,1.2-.88-.44-.63-.47-.63-.92.66-2.17-5,3.21-2.39-.47-.62-.47-.63L396.74,290l-.78-1.82-1.45.63.94,2.17-3.11,2.29-.6-1.35-.72.32-.72.31.72,1.67-3.17,2.36.44.66h0l.44.63,2.92-2.14,2.2,5.06-3.27,2.42-1.6-3.33-.72.34-.7.35,1.73,3.62-2,1.44.47.63.44.63,1.73-1.29,2.17,4.53-2.29,1.6.44.63.47.66,2-1.48,2.27,4.75-.35.32.5.59.51.6,5.72-4.81Zm-8-17.61,3.11-2.29,2.2,5.06-3.11,2.29Zm-1.7,9.88,3.24-2.39,2.08,4.74-3.12,2.21Z" transform="translate(-325.43 -118.48)"/><line class="cls-9" x1="73.99" y1="193.99" x2="73.96" y2="193.99"/><path class="cls-6" d="M445,304c.3,3.33-.76,4.93-2.24,4.28,0,0-1.1-1.54,0-2.39A13.09,13.09,0,0,1,445,304Z" transform="translate(-325.43 -118.48)"/><path class="cls-6" d="M442.73,297.73c1.15-.4,2,.32,1.86,2.24a8.3,8.3,0,0,0-1.07.31C442.17,300.53,442.73,297.73,442.73,297.73Z" transform="translate(-325.43 -118.48)"/><path class="cls-4" d="M420.41,351.79c-.66.12-1.32.22-2,.28,0,0-1.17.91,0,2.55-1.26,0-2.27-2.36-2.27-5.29s1-5.28,2.27-5.28c-1.57,2.08,0,3.14,0,3.14a20.43,20.43,0,0,0,2.07,0c27.67-.26,39.59-34.34,34.56-41.7-3.37-4.93-7.58-3.3-10.09-1.54a13.09,13.09,0,0,0-2.24,1.89c-1.1.85,0,2.39,0,2.39-1.25,0-2.26-2.36-2.26-5.25s1-5.29,2.26-5.29c0,0-.56,2.8.79,2.55a8.3,8.3,0,0,1,1.07-.31c3.43-1,14-3,14.78,7.73C460.31,320.34,451.41,347.26,420.41,351.79Z" transform="translate(-325.43 -118.48)"/><path class="cls-6" d="M418.43,352.07c.66-.06,1.32-.16,2-.28.58,2.62-.52,3.41-2,2.83C417.26,353,418.43,352.07,418.43,352.07Z" transform="translate(-325.43 -118.48)"/><path class="cls-6" d="M418.43,344.05c1.45-.35,2.76.59,2.07,3.18a20.43,20.43,0,0,1-2.07,0S416.86,346.13,418.43,344.05Z" transform="translate(-325.43 -118.48)"/><path class="cls-5" d="M421.76,347.19a4.34,4.34,0,0,0-.57,2.22,4.69,4.69,0,0,0,.9,2.11,2.71,2.71,0,0,1-1.12-.75,2.27,2.27,0,0,1,.79-3.58Z" transform="translate(-325.43 -118.48)"/><path class="cls-5" d="M427.19,346.47c-.24.85-.63,1.68-.44,2.27s.94.87,1.76,1.23a2.79,2.79,0,0,1-1.38,0,1.57,1.57,0,0,1-1.14-1.06A2.49,2.49,0,0,1,427.19,346.47Z" transform="translate(-325.43 -118.48)"/><path class="cls-5" d="M433.78,344.22c-.18.83-.53,1.68-.29,2.18s1,.61,1.87.84a3.05,3.05,0,0,1-1.31.28,1.53,1.53,0,0,1-1.29-.83,1.86,1.86,0,0,1,.16-1.47A2.69,2.69,0,0,1,433.78,344.22Z" transform="translate(-325.43 -118.48)"/><path class="cls-5" d="M440.16,340.27a6,6,0,0,0-.32,2.29c.07.53,1,.64,1.86.83a2.69,2.69,0,0,1-1.33.31,1.4,1.4,0,0,1-1.29-.92,2.15,2.15,0,0,1,.23-1.47A3.07,3.07,0,0,1,440.16,340.27Z" transform="translate(-325.43 -118.48)"/><path class="cls-5" d="M444.78,336c-.11.9-.31,2,.17,2.21s1.54.08,2.47.13a4.1,4.1,0,0,1-1.29.64,2.11,2.11,0,0,1-1.6-.11,1.43,1.43,0,0,1-.48-1.61A3,3,0,0,1,444.78,336Z" transform="translate(-325.43 -118.48)"/><path class="cls-5" d="M448.5,331.4c.05.92.08,2.05.71,2a9.13,9.13,0,0,0,2.55-.48,3.33,3.33,0,0,1-2.71,1.25,1.3,1.3,0,0,1-1-1.37A2.72,2.72,0,0,1,448.5,331.4Z" transform="translate(-325.43 -118.48)"/><path class="cls-5" d="M452.53,324.44c.05.57.11,1.13.19,1.65s.28,1,.52.89a2.67,2.67,0,0,0,1.25-.6c.45-.3.9-.65,1.39-.95a6,6,0,0,1-1,1.41,2.66,2.66,0,0,1-1.65.93,1,1,0,0,1-1-.7,2.12,2.12,0,0,1-.16-.94A4.61,4.61,0,0,1,452.53,324.44Z" transform="translate(-325.43 -118.48)"/><path class="cls-5" d="M455.6,315.48c.14.51.27,1,.41,1.48s.39.9.55.87.67-.29,1-.6.75-.67,1.18-1a5.2,5.2,0,0,1-.74,1.42,2,2,0,0,1-1.53,1,1.55,1.55,0,0,1-1.06-1.54A4.24,4.24,0,0,1,455.6,315.48Z" transform="translate(-325.43 -118.48)"/><path class="cls-5" d="M456,308.27a13.59,13.59,0,0,0,1,.9c.34.26.7.45.9.34s.48-.41.71-.76l.67-1.21a4,4,0,0,1-.12,1.45,1.81,1.81,0,0,1-1,1.28,1.59,1.59,0,0,1-1.55-.68A3.32,3.32,0,0,1,456,308.27Z" transform="translate(-325.43 -118.48)"/><path class="cls-5" d="M454.14,304.36c1-.05,2-.23,2-1a11.4,11.4,0,0,0-.25-2.72,3.73,3.73,0,0,1,1,2.86,1.49,1.49,0,0,1-1.24,1.21A2.31,2.31,0,0,1,454.14,304.36Z" transform="translate(-325.43 -118.48)"/><path class="cls-5" d="M447.33,302.72c.42-.35.83-.7,1.2-1s.71-.77.6-.91-.56-.49-1-.67-1-.38-1.47-.61a5.71,5.71,0,0,1,1.65,0,2,2,0,0,1,1.58,1,1.64,1.64,0,0,1-1,1.64A4.69,4.69,0,0,1,447.33,302.72Z" transform="translate(-325.43 -118.48)"/><path class="cls-10" d="M409,342.85c-8.94,4.63-10.41,9.56,0,14.45a2.81,2.81,0,0,1-2.8,2.8h0a2.81,2.81,0,0,1-2.79-2.8c8.94-5,8.72-9.8,0-14.45a2.81,2.81,0,0,1,2.79-2.8h0A2.81,2.81,0,0,1,409,342.85Z" transform="translate(-325.43 -118.48)"/><polygon class="cls-6" points="81.03 232.9 79.7 232.59 79.3 231.29 80.23 230.29 81.56 230.59 81.96 231.9 81.03 232.9"/><rect class="cls-3" x="102.53" y="294.28" width="34.12" height="20.61" rx="3.28"/><polygon class="cls-3" points="95.74 357.3 96.24 296.85 96.74 357.3 95.74 357.3"/></g></svg>