<svg id="beer" xmlns="http://www.w3.org/2000/svg" xmlns:xlink="http://www.w3.org/1999/xlink" viewBox="0 0 84.04 114.75"><defs><style>.cls-1{fill:#f39200;}.cls-1,.cls-2,.cls-3,.cls-4,.cls-5{stroke:#fff;stroke-miterlimit:10;}.cls-1,.cls-2,.cls-3,.cls-5{stroke-width:0.75px;}.cls-2{fill:url(#linear-gradient);}.cls-3,.cls-5{fill:none;}.cls-4{fill:#fff;}.cls-5{stroke-linecap:round;}</style><linearGradient id="linear-gradient" x1="375.43" y1="339.75" x2="388.06" y2="237.47" gradientUnits="userSpaceOnUse"><stop offset="0.2" stop-color="#f9b233"/><stop offset="0.29" stop-color="#f7ba4d"/><stop offset="0.54" stop-color="#f3d091"/><stop offset="0.75" stop-color="#f0e0c3"/><stop offset="0.91" stop-color="#eee9e1"/><stop offset="1" stop-color="#ededed"/></linearGradient></defs><path class="cls-1" d="M405.17,337.68l0,.41c-.87,4.48-15.1,5.81-31.94,3s-29.88-8.83-29.14-13.36,15.05-5.81,31.93-3C392.36,327.47,405.17,333.24,405.17,337.68Z" transform="translate(-343.64 -228.18)"/><path class="cls-2" d="M417.62,264.29l-2.7,15.92L407,327l-1.83,10.71c0-4.44-12.81-10.21-29.19-12.95-16.88-2.84-31.16-1.51-31.93,3l11-64.46c2.74,1.6,7.64,2.05,14.78,1.23,19.49-2.24,14.23,6.5,31.15,5.4,11.49-.73,15.1-3.8,16.2-5.67Z" transform="translate(-343.64 -228.18)"/><polyline class="cls-3" points="11.4 35.06 12.96 25.77 73.53 36.02"/><path class="cls-4" d="M417.73,262.65a3,3,0,0,1-.55,1.55c-1.1,1.88-4.72,4.94-16.2,5.68-16.93,1.09-11.67-7.65-31.16-5.4-7.14.82-12,.36-14.78-1.24-4.76-2.74-3.2-8.78,4-16.88,6-6.77,7-9.66,6.59-10.71a36.28,36.28,0,0,0,4.81-.91c12.85-3.16,10.66-2,10.24-1.61.23,0,1.88-.54,8.61-2.79,19.4-6.4-3.44,7.87,15.87,6.64s0,0,13.45,15.37C434,258.8,417.73,262.65,417.73,262.65Z" transform="translate(-343.64 -228.18)"/><line class="cls-5" x1="18.5" y1="85.63" x2="24.59" y2="49.64"/><line class="cls-5" x1="33.76" y1="88.22" x2="39.86" y2="52.22"/><line class="cls-5" x1="48.44" y1="90.7" x2="54.54" y2="54.71"/><path class="cls-5" d="M427.1,295.82l-3.47,20.4a13.5,13.5,0,0,1-15.51,11A4.78,4.78,0,0,1,407,327l7.91-46.76a3.2,3.2,0,0,1,1.15.09,13.37,13.37,0,0,1,11,15.51Z" transform="translate(-343.64 -228.18)"/></svg>