<svg id="cash" xmlns="http://www.w3.org/2000/svg" viewBox="0 0 159.7 157.21"><defs><style>.cls-1{fill:#359c37;}.cls-2{fill:#063;stroke-width:0.75px;}.cls-2,.cls-3{stroke:#063;stroke-miterlimit:10;}.cls-3{fill:none;stroke-width:2px;}.cls-4{fill:#fff;}</style></defs><rect class="cls-1" x="305.8" y="278.78" width="125.48" height="48.45" transform="translate(-94.51 -344.98) rotate(30.88)"/><ellipse class="cls-2" cx="368.63" cy="302.85" rx="20.21" ry="13.77" transform="translate(-382.74 265.02) rotate(-59.12)"/><rect class="cls-3" x="309.13" y="282.03" width="118.81" height="41.97" transform="translate(-94.51 -344.98) rotate(30.88)"/><path class="cls-4" d="M366.69,303.78A8.81,8.81,0,1,1,379.77,292a1.34,1.34,0,1,1-2,1.8,6.13,6.13,0,1,0-9.1,8.21,1.34,1.34,0,1,1-2,1.79Z" transform="translate(-302.26 -198.79)"/><path class="cls-4" d="M355.6,313.79a1.35,1.35,0,0,1,.1-1.9,1.33,1.33,0,0,1,1.89.1,6.13,6.13,0,0,0,9.1-8.21,1.34,1.34,0,1,1,2-1.79,8.81,8.81,0,1,1-13.08,11.8Z" transform="translate(-302.26 -198.79)"/><rect class="cls-4" x="376.01" y="286.66" width="2.61" height="5.41" rx="1.22" transform="translate(-100.27 -351.42) rotate(30.88)"/><rect class="cls-4" x="359.34" y="314.55" width="2.61" height="5.41" rx="1.22" transform="translate(-88.32 -338.91) rotate(30.88)"/><rect class="cls-1" x="355.79" y="246.18" width="125.48" height="48.45" transform="translate(362.49 -361.58) rotate(86.75)"/><ellipse class="cls-2" cx="418.71" cy="270.39" rx="20.21" ry="13.77" transform="matrix(1, -0.06, 0.06, 1, -316.92, -174.6)"/><rect class="cls-3" x="359.12" y="249.42" width="118.81" height="41.97" transform="translate(362.49 -361.58) rotate(86.75)"/><path class="cls-4" d="M416.85,269.31A8.81,8.81,0,0,1,434,273.52a1.34,1.34,0,0,1-2.61-.65A6.12,6.12,0,1,0,419.46,270a1.34,1.34,0,0,1-2.61-.64Z" transform="translate(-302.26 -198.79)"/><path class="cls-4" d="M402.35,265.74a1.34,1.34,0,0,1,1.62-1,1.35,1.35,0,0,1,1,1.62,6.12,6.12,0,1,0,11.89,2.93,1.34,1.34,0,0,1,2.61.64,8.81,8.81,0,1,1-17.11-4.21Z" transform="translate(-302.26 -198.79)"/><rect class="cls-4" x="433.44" y="267.31" width="2.61" height="5.41" rx="1.22" transform="translate(377.41 -378.14) rotate(86.75)"/><rect class="cls-4" x="401" y="269.16" width="2.61" height="5.41" rx="1.22" transform="translate(348.65 -344.01) rotate(86.75)"/><rect class="cls-1" x="334.55" y="239.92" width="125.48" height="48.45" transform="translate(85.49 -411.64) rotate(55.24)"/><ellipse class="cls-2" cx="397.44" cy="264.04" rx="20.21" ry="13.77" transform="translate(-381.87 74.96) rotate(-34.76)"/><rect class="cls-3" x="337.89" y="243.16" width="118.81" height="41.97" transform="translate(85.49 -411.64) rotate(55.24)"/><path class="cls-4" d="M395.29,264.09a8.81,8.81,0,0,1,16.78-5.36,1.34,1.34,0,1,1-2.55.82,6.13,6.13,0,1,0-11.68,3.72,1.34,1.34,0,1,1-2.55.82Z" transform="translate(-302.26 -198.79)"/><path class="cls-4" d="M381.06,268.63a1.34,1.34,0,1,1,2.56-.82,6.12,6.12,0,0,0,11.67-3.72,1.34,1.34,0,1,1,2.55-.82,8.81,8.81,0,1,1-16.78,5.36Z" transform="translate(-302.26 -198.79)"/><rect class="cls-4" x="409.61" y="252.63" width="2.61" height="5.41" rx="1.22" transform="translate(84.11 -426.62) rotate(55.24)"/><rect class="cls-4" x="382.92" y="271.16" width="2.61" height="5.41" rx="1.22" transform="translate(87.86 -396.73) rotate(55.24)"/><rect class="cls-1" x="317.38" y="265.26" width="125.48" height="48.45" transform="translate(73.84 -387.09) rotate(52.23)"/><ellipse class="cls-2" cx="380.26" cy="289.38" rx="20.21" ry="13.77" transform="translate(-399.83 94.78) rotate(-37.77)"/><rect class="cls-3" x="320.71" y="268.51" width="118.81" height="41.97" transform="translate(73.84 -387.09) rotate(52.23)"/><path class="cls-4" d="M378.12,289.54a8.81,8.81,0,1,1,16.48-6.23,1.34,1.34,0,0,1-2.51.95,6.13,6.13,0,1,0-11.46,4.33,1.34,1.34,0,1,1-2.51,1Z" transform="translate(-302.26 -198.79)"/><path class="cls-4" d="M364.15,294.82a1.34,1.34,0,1,1,2.51-.95,6.13,6.13,0,0,0,11.46-4.33,1.33,1.33,0,0,1,.78-1.73,1.35,1.35,0,0,1,1.73.78,8.81,8.81,0,0,1-16.48,6.23Z" transform="translate(-302.26 -198.79)"/><rect class="cls-4" x="391.96" y="277.28" width="2.61" height="5.41" rx="1.22" transform="translate(71.42 -401.16) rotate(52.23)"/><rect class="cls-4" x="366.28" y="297.18" width="2.61" height="5.41" rx="1.22" transform="translate(77.2 -373.15) rotate(52.23)"/><rect class="cls-1" x="26.78" y="93.67" width="125.48" height="48.45"/><ellipse class="cls-2" cx="89.52" cy="117.71" rx="13.77" ry="20.21"/><rect class="cls-3" x="30.11" y="96.92" width="118.81" height="41.97"/><path class="cls-4" d="M390.59,318.3a8.81,8.81,0,1,1,5.17-16.84A1.34,1.34,0,1,1,395,304a6.13,6.13,0,0,0-3.6,11.72,1.34,1.34,0,0,1-.78,2.56Z" transform="translate(-302.26 -198.79)"/><path class="cls-4" d="M386.2,332.58A1.34,1.34,0,1,1,387,330a6.13,6.13,0,0,0,3.6-11.71,1.34,1.34,0,1,1,.78-2.56,8.81,8.81,0,1,1-5.17,16.84Z" transform="translate(-302.26 -198.79)"/><rect class="cls-4" x="88.75" y="98.98" width="2.61" height="5.41" rx="1.22"/><rect class="cls-4" x="88.75" y="131.47" width="2.61" height="5.41" rx="1.22"/><rect class="cls-1" x="367.87" y="259.78" width="125.48" height="48.45" transform="translate(360.44 -375.45) rotate(83.33)"/><ellipse class="cls-2" cx="430.79" cy="283.99" rx="20.21" ry="13.77" transform="translate(-332.32 -146.86) rotate(-6.67)"/><rect class="cls-3" x="371.2" y="263.03" width="118.81" height="41.97" transform="translate(360.44 -375.45) rotate(83.33)"/><path class="cls-4" d="M428.87,283a8.81,8.81,0,1,1,17.33,3.18,1.34,1.34,0,0,1-2.64-.49,6.13,6.13,0,0,0-12.05-2.21,1.34,1.34,0,0,1-2.64-.48Z" transform="translate(-302.26 -198.79)"/><path class="cls-4" d="M414.18,280.32a1.34,1.34,0,1,1,2.64.48A6.13,6.13,0,0,0,428.87,283a1.34,1.34,0,1,1,2.64.48,8.81,8.81,0,0,1-17.33-3.18Z" transform="translate(-302.26 -198.79)"/><rect class="cls-4" x="445.47" y="279.95" width="2.61" height="5.41" rx="1.22" transform="translate(373.39 -392.71) rotate(83.33)"/><rect class="cls-4" x="413.2" y="283.73" width="2.61" height="5.41" rx="1.22" transform="translate(348.62 -357.32) rotate(83.33)"/></svg>