<svg id="alien-head" xmlns="http://www.w3.org/2000/svg" xmlns:xlink="http://www.w3.org/1999/xlink" viewBox="0 0 234.14 236.66"><defs><style>.cls-1{fill:#e7e2de;}.cls-2{fill:#2a2f42;}.cls-3{fill:#ccc0b0;}.cls-4{fill:#dad1c5;}.cls-5{fill:#b6aca3;}.cls-6{fill:#e7e0da;}.cls-7{fill:#d5ccc5;}.cls-8{fill:#cac1ba;}.cls-12,.cls-14,.cls-9{fill:none;}.cls-9{stroke:#7b6a58;stroke-width:9px;}.cls-10,.cls-11,.cls-12,.cls-13,.cls-14,.cls-15,.cls-16,.cls-9{stroke-miterlimit:10;}.cls-10{fill:#f39200;}.cls-10,.cls-11,.cls-12,.cls-13,.cls-14,.cls-15,.cls-16{stroke:#fff;}.cls-10,.cls-11,.cls-12,.cls-14,.cls-15,.cls-16{stroke-width:0.75px;}.cls-11{fill:url(#linear-gradient);}.cls-13{fill:#fff;}.cls-14{stroke-linecap:round;}.cls-15{fill:url(#linear-gradient-2);}.cls-16{fill:url(#linear-gradient-3);}.cls-17{fill:#ffed00;}</style><linearGradient id="linear-gradient" x1="298.93" y1="270.61" x2="304.53" y2="225.33" gradientTransform="translate(2.54 9.17) rotate(-7.08)" gradientUnits="userSpaceOnUse"><stop offset="0.2" stop-color="#f9b233"/><stop offset="0.29" stop-color="#f7ba4d"/><stop offset="0.54" stop-color="#f3d091"/><stop offset="0.75" stop-color="#f0e0c3"/><stop offset="0.91" stop-color="#eee9e1"/><stop offset="1" stop-color="#ededed"/></linearGradient><linearGradient id="linear-gradient-2" x1="491.87" y1="267.69" x2="497.47" y2="222.4" gradientTransform="translate(-23.06 143.02) rotate(-10.44)" xlink:href="#linear-gradient"/><linearGradient id="linear-gradient-3" x1="398.35" y1="202.61" x2="403.95" y2="157.33" gradientTransform="translate(26.61 77.53) rotate(-8.48)" xlink:href="#linear-gradient"/></defs><g id="head"><path class="cls-1" d="M383,373.88,377.73,385a25.14,25.14,0,0,1-15.28-1.87c-2.66-1.27-4.81-3.79-6.44-7.13l5.76-12.13a11.78,11.78,0,0,1,15.63-5.58,11.6,11.6,0,0,1,6,6.67A11.76,11.76,0,0,1,383,373.88Z" transform="translate(-313.02 -156)"/><path class="cls-1" d="M460.62,325.14s-3.4,15.33-20.15,23.76c-.27.15-.6.32-1,.48a52.17,52.17,0,0,1-17,4.53c-.13,0-.25,0-.3,0a.59.59,0,0,1-.13,0c-.1.12-.38.47-.85,1-.18.21-.42.46-.64.76-5.12,5.8-22.54,24.33-40.45,28.7l-1.28.29c-.31.06-.62.12-.89.15a.49.49,0,0,1-.23.06l0,0a25.14,25.14,0,0,1-15.28-1.87c-2.66-1.27-4.81-3.79-6.44-7.13l0,0a22.22,22.22,0,0,1-1.07-2.3A58.5,58.5,0,0,1,352,362.7c0-.23-.07-.44-.13-.67a128.93,128.93,0,0,1-1.61-17.54c0-.79-.09-1.63-.1-2.45-.22-12,.68-21.87.68-21.87a55.39,55.39,0,0,1-6.59-17.46v-.08a43.35,43.35,0,0,1,2.55-26.32s18.15-84,92.49-54.48C439.32,221.83,508.64,252.46,460.62,325.14Z" transform="translate(-313.02 -156)"/><ellipse class="cls-2" cx="369.82" cy="298.38" rx="18.2" ry="27.9" transform="matrix(0.92, -0.4, 0.4, 0.92, -401.15, 15.57)"/><path class="cls-3" d="M358.73,272.78c9.23-4,21.67,4.23,27.79,18.37,3.88,8.94,4.29,18.09,1.74,24.63,3.65-6.57,3.67-16.85-.67-26.87-6.13-14.14-18.57-22.36-27.8-18.37a14.15,14.15,0,0,0-7.35,8.2A13.38,13.38,0,0,1,358.73,272.78Z" transform="translate(-313.02 -156)"/><ellipse class="cls-2" cx="428.84" cy="326.37" rx="27.9" ry="18.2" transform="translate(-385.81 -26.58) rotate(-15.84)"/><path class="cls-3" d="M423.87,308.86c14.82-4.21,29.06.22,31.81,9.9a13.15,13.15,0,0,1-.52,8.31c2.16-3.65,2.94-7.55,1.9-11.23-2.75-9.67-17-14.1-31.81-9.89-10.67,3-18.7,9.7-21.36,16.8C407.43,316.78,414.68,311.46,423.87,308.86Z" transform="translate(-313.02 -156)"/><ellipse class="cls-3" cx="366.71" cy="251.84" rx="5.83" ry="2.48" transform="translate(-383.6 177.56) rotate(-45.06)"/><ellipse class="cls-3" cx="371.15" cy="262.24" rx="4.22" ry="1.89" transform="translate(-389.66 183.76) rotate(-45.06)"/><ellipse class="cls-3" cx="466.23" cy="299.04" rx="5.83" ry="2.48" transform="translate(-191.48 576.62) rotate(-84.19)"/><ellipse class="cls-3" cx="456.34" cy="302.64" rx="4.22" ry="1.89" transform="translate(-203.95 570.02) rotate(-84.19)"/><path class="cls-4" d="M419.23,299.71l-16.36,6.16-6.16-16.35C402.12,297.7,409.74,300.84,419.23,299.71Z" transform="translate(-313.02 -156)"/><path class="cls-5" d="M383.31,367.08c-7.76-.3-15.86-7.52-15.86-7.52l7.11-3.59,2.61,3.56,4.63-.13Z" transform="translate(-313.02 -156)"/><ellipse class="cls-5" cx="382.61" cy="337.97" rx="3.61" ry="2.28" transform="translate(-433.63 267.91) rotate(-51.15)"/><ellipse class="cls-5" cx="391.36" cy="342.12" rx="3.61" ry="2.28" transform="translate(-337.08 498.6) rotate(-78.11)"/><ellipse class="cls-6" cx="369.77" cy="283.22" rx="2.48" ry="4.98" transform="translate(-376.28 -44.34) rotate(-15.84)"/><ellipse class="cls-6" cx="442.76" cy="316.58" rx="4.98" ry="2.48" transform="translate(-402.37 46.06) rotate(-23.42)"/><path class="cls-7" d="M355,373.61c-3-6.82-4.24-18.29-4.76-31.56-.22-12,.65-21.89.65-21.89a55.78,55.78,0,0,1-6.55-17.46c.45,1.13,9,21.44,23.87,24.51,0,0-6.14,3.4-11.35.93C359.88,330.2,369.35,339.69,355,373.61Z" transform="translate(-313.02 -156)"/><path class="cls-7" d="M378,384.89c7.48-1.13,17.92-6.15,28.2-15.11a102.75,102.75,0,0,0,15.94-15.84,43.88,43.88,0,0,0,18.34-5c-1.16.36-23,5.63-34.76-3.92,0,0,1.24,6.91,6.46,9.38C408.65,353.3,395.16,352.29,378,384.89Z" transform="translate(-313.02 -156)"/><path class="cls-8" d="M377.73,385l0,0c-3.23,2.87-11.68,9.61-16.87,7.15-5.38-2.56-5.09-12.8-4.83-16.18,1.63,3.34,3.78,5.86,6.44,7.13A25.14,25.14,0,0,0,377.73,385Z" transform="translate(-313.02 -156)"/></g><ellipse id="alien-circle" class="cls-9" cx="430.09" cy="237.37" rx="39.47" ry="122.42" transform="translate(-277.52 374) rotate(-65.45)"/><g id="beer3"><path class="cls-10" d="M345.52,238.32v.18c-.14,2-6.32,3.38-13.87,3.05s-13.61-2.25-13.53-4.28,6.29-3.37,13.86-3.05C339.33,234.54,345.27,236.37,345.52,238.32Z" transform="translate(-313.02 -156)"/><path class="cls-11" d="M347,205.4l-.32,7.14-.92,21-.22,4.8c-.25-1.95-6.19-3.78-13.54-4.1-7.57-.32-13.77,1-13.86,3.05l1.3-28.92c1.29.55,3.47.49,6.56-.26,8.44-2.05,6.61,2.07,14,.67,5-.95,6.42-2.49,6.8-3.38Z" transform="translate(-313.02 -156)"/><polyline class="cls-12" points="6.4 52.36 6.58 48.19 33.76 49.39"/><path class="cls-13" d="M346.93,204.67a1.25,1.25,0,0,1-.15.71c-.38.89-1.8,2.43-6.81,3.38-7.38,1.41-5.54-2.72-14-.67-3.09.75-5.27.82-6.56.26-2.24-.94-1.89-3.68.82-7.63,2.27-3.31,2.55-4.63,2.31-5.07a15.24,15.24,0,0,0,2.07-.66c5.47-2.09,4.57-1.45,4.41-1.26.1,0,.8-.35,3.63-1.7,8.17-3.87-1.08,3.65,7.34,2.05s0,0,6.74,6C353.88,202.09,346.93,204.67,346.93,204.67Z" transform="translate(-313.02 -156)"/><line class="cls-14" x1="12.28" y1="74.19" x2="13" y2="58.04"/><line class="cls-14" x1="19.13" y1="74.49" x2="19.84" y2="58.35"/><line class="cls-14" x1="25.72" y1="74.78" x2="26.43" y2="58.64"/><path class="cls-14" d="M352.87,218.73l-.42,9.16a6,6,0,0,1-6.21,5.69,2.2,2.2,0,0,1-.5-.06l.93-21a1.45,1.45,0,0,1,.51,0,6,6,0,0,1,4.13,1.91A6,6,0,0,1,352.87,218.73Z" transform="translate(-313.02 -156)"/></g><g id="beer2"><path class="cls-10" d="M522,313.81V314c0,2-6.11,3.74-13.67,3.85s-13.72-1.44-13.76-3.47,6.09-3.74,13.67-3.86C515.58,310.4,521.62,311.88,522,313.81Z" transform="translate(-313.02 -156)"/><path class="cls-15" d="M521.5,280.86l.11,7.15.3,21,.07,4.81c-.36-1.93-6.4-3.41-13.75-3.29-7.58.12-13.69,1.84-13.67,3.86l-.39-28.95c1.32.47,3.49.28,6.53-.65,8.31-2.54,6.72,1.68,14-.15,4.94-1.24,6.27-2.87,6.6-3.77Z" transform="translate(-313.02 -156)"/><polyline class="cls-12" points="181.15 129.43 181.08 125.26 208.28 124.86"/><path class="cls-13" d="M521.42,280.14a1.31,1.31,0,0,1-.12.72c-.32.9-1.65,2.53-6.59,3.77-7.29,1.84-5.7-2.39-14,.15-3,.93-5.21,1.12-6.54.65-2.29-.82-2.1-3.57.38-7.67,2.07-3.43,2.27-4.77,2-5.19a15.5,15.5,0,0,0,2-.79c5.34-2.4,4.48-1.71,4.33-1.52.1,0,.78-.39,3.52-1.9,7.94-4.35-.86,3.7,7.45,1.61s0,0,7.09,5.61C528.2,277.16,521.42,280.14,521.42,280.14Z" transform="translate(-313.02 -156)"/><line class="cls-14" x1="188.3" y1="150.88" x2="188.07" y2="134.72"/><line class="cls-14" x1="195.15" y1="150.78" x2="194.92" y2="134.62"/><line class="cls-14" x1="201.75" y1="150.69" x2="201.51" y2="134.53"/><path class="cls-14" d="M528.16,293.83l.13,9.16a6,6,0,0,1-5.87,6.05,2.13,2.13,0,0,1-.5,0l-.31-21a1.45,1.45,0,0,1,.51-.05,5.9,5.9,0,0,1,4.24,1.67A6,6,0,0,1,528.16,293.83Z" transform="translate(-313.02 -156)"/></g><g id="beer1"><path class="cls-10" d="M463.37,216.35v.18c-.09,2-6.23,3.53-13.79,3.39S435.92,218,436,216s6.21-3.52,13.79-3.38C457.09,212.72,463.08,214.41,463.37,216.35Z" transform="translate(-313.02 -156)"/><path class="cls-16" d="M464,183.4l-.14,7.15-.41,21-.1,4.81c-.29-1.94-6.28-3.63-13.63-3.76C442.16,212.45,436,214,436,216l.6-28.94c1.3.52,3.48.4,6.55-.43,8.39-2.25,6.65,1.92,14,.33,5-1.07,6.36-2.64,6.72-3.54Z" transform="translate(-313.02 -156)"/><polyline class="cls-12" points="123.53 31.03 123.61 26.86 150.8 27.4"/><path class="cls-13" d="M464,182.68a1.23,1.23,0,0,1-.13.71c-.36.9-1.75,2.47-6.73,3.54-7.34,1.59-5.6-2.58-14-.33-3.08.83-5.25,1-6.56.43-2.26-.89-2-3.64.65-7.65,2.18-3.36,2.43-4.69,2.18-5.12a15.9,15.9,0,0,0,2.05-.72c5.42-2.22,4.54-1.55,4.38-1.37.1,0,.78-.36,3.58-1.78,8.08-4.07-1,3.67,7.39,1.87s0,0,6.89,5.85C470.85,179.93,464,182.68,464,182.68Z" transform="translate(-313.02 -156)"/><line class="cls-14" x1="129.94" y1="52.72" x2="130.26" y2="36.56"/><line class="cls-14" x1="136.79" y1="52.85" x2="137.11" y2="36.69"/><line class="cls-14" x1="143.38" y1="52.98" x2="143.7" y2="36.82"/><path class="cls-14" d="M470.24,196.59l-.19,9.16a6,6,0,0,1-6.08,5.84,1.73,1.73,0,0,1-.5-.05l.42-21a1.45,1.45,0,0,1,.51,0,6,6,0,0,1,4.18,1.81A6.05,6.05,0,0,1,470.24,196.59Z" transform="translate(-313.02 -156)"/></g><polygon id="star3" class="cls-17" points="54.94 40.67 50.06 25.14 33.78 24.98 47.05 15.54 42.17 0 55.25 9.7 68.52 0.26 63.33 15.7 76.41 25.4 60.13 25.24 54.94 40.67"/><polygon id="star2" class="cls-17" points="189.16 105.24 197.15 91.05 186.12 79.07 202.09 82.28 210.07 68.09 211.95 84.27 227.91 87.48 213.11 94.27 214.99 110.44 203.96 98.46 189.16 105.24"/><polygon id="star1" class="cls-17" points="97.61 138.46 97.22 122.18 81.61 117.52 96.98 112.12 96.58 95.84 106.47 108.78 121.83 103.38 112.58 116.78 122.47 129.72 106.86 125.06 97.61 138.46"/></svg>