<svg id="keg" xmlns="http://www.w3.org/2000/svg" viewBox="0 0 278.25 322.07"><defs><style>.cls-1{fill:#6e6d6d;}.cls-2{fill:#9d9d9c;}.cls-3{fill:#464545;}.cls-4{fill:#bababa;}.cls-5{fill:#797977;}.cls-6{fill:#565555;}.cls-7{fill:#6d6d6c;}.cls-8{fill:#130d0b;}.cls-9{fill:#b2b1b1;}.cls-10{fill:#6f6e6e;}</style></defs><g id="keg-body"><rect class="cls-1" x="81.29" y="241.43" width="20.87" height="80.64" rx="3.59"/><rect class="cls-1" x="178.06" y="241.43" width="20.87" height="80.64" rx="3.59"/><rect class="cls-1" x="387.65" y="379.57" width="6.97" height="87.13" rx="1.2" transform="translate(-282.16 680.53) rotate(-90)"/><path class="cls-2" d="M350.48,423.75l-8.75,14.77a3,3,0,0,1-3.64,1.11l-4.87-2a1.7,1.7,0,0,1-.79-2.38l5.6-11.42a4.38,4.38,0,0,1,3.35-2.27l7.16-.42C350.47,421,351.4,422.19,350.48,423.75Z" transform="translate(-250.16 -133.74)"/><polygon class="cls-3" points="85.18 301.5 85.13 302.69 84.06 303.25 83.05 302.6 83.1 301.4 84.17 300.85 85.18 301.5"/><polygon class="cls-3" points="91.52 289.48 91.46 290.68 90.39 291.23 89.38 290.58 89.44 289.38 90.5 288.83 91.52 289.48"/><polygon class="cls-3" points="90.62 303.67 90.57 304.87 89.5 305.42 88.49 304.78 88.54 303.58 89.61 303.02 90.62 303.67"/><polygon class="cls-3" points="99.8 288.46 99.74 289.66 98.68 290.21 97.67 289.56 97.72 288.37 98.79 287.81 99.8 288.46"/><path class="cls-2" d="M445.44,423.56H430.73c-1,0-1.18-1.54-.58-3.18l1.93-5.28a2.8,2.8,0,0,1,1.69-1.74l8.32-1.88a2.1,2.1,0,0,1,2.35,1.21l2.66,6.4C448,421.33,447.32,423.56,445.44,423.56Z" transform="translate(-250.16 -133.74)"/><polygon class="cls-3" points="184.83 281.9 183.84 282.26 183.03 281.58 183.21 280.55 184.2 280.18 185.01 280.86 184.83 281.9"/><polygon class="cls-3" points="193.33 280.32 192.34 280.69 191.53 280.01 191.71 278.97 192.7 278.61 193.51 279.28 193.33 280.32"/><polygon class="cls-3" points="195.76 288.74 194.77 288.37 194.59 287.33 195.4 286.66 196.39 287.02 196.57 288.06 195.76 288.74"/><polygon class="cls-3" points="181.64 289.16 180.73 288.63 180.73 287.58 181.64 287.05 182.55 287.58 182.55 288.63 181.64 289.16"/><circle class="cls-4" cx="139.13" cy="139.13" r="139.13"/><path id="Path_489" data-name="Path 489" class="cls-3" d="M490.76,196.13c-.41-.56-.85-1.14-1.29-1.7a127.81,127.81,0,0,0-27.53-26c-.41-.29-.85-.58-1.28-.87a126,126,0,0,0-27.51-14.13c-.43-.18-.87-.33-1.31-.47a124.82,124.82,0,0,0-24.38-6l-1.29-.18a128.64,128.64,0,0,0-16.88-1.11c-3.64,0-7.24.15-10.8.47-.44,0-.87.06-1.28.12a126.34,126.34,0,0,0-28.33,6l-1.31.47a127.32,127.32,0,0,0-29.63,14.86l-1.28.9a127.56,127.56,0,0,0-27,25.32c-.44.55-.88,1.11-1.29,1.66a127.24,127.24,0,0,0,0,155c.41.55.85,1.11,1.29,1.66a127.26,127.26,0,0,0,27,25.31c.43.33.84.62,1.28.9a127,127,0,0,0,29.64,14.87c.43.14.87.32,1.31.46a125.72,125.72,0,0,0,28.32,6c.41.06.85.09,1.29.12,3.56.32,7.15.46,10.8.46A128.86,128.86,0,0,0,406.18,399c.44-.05.87-.11,1.28-.18a124.64,124.64,0,0,0,24.38-6c.44-.15.88-.29,1.32-.47a126.13,126.13,0,0,0,27.5-14.13c.44-.29.87-.58,1.28-.87a129.05,129.05,0,0,0,27.54-26c.44-.55.87-1.14,1.28-1.69a127.24,127.24,0,0,0,0-153.5ZM288.36,343.64V202.11c.41-.61.85-1.19,1.29-1.81V345.45c-.44-.62-.88-1.2-1.29-1.81Zm28.29,28.84V173.3l1.29-.94V373.42c-.41-.32-.85-.64-1.29-.94Zm30.92,16.41v-232l1.31-.44v232.9c-.43-.1-.87-.28-1.31-.43Zm29.64,6.65V150.19c.4,0,.84-.09,1.28-.12v245.6c-.44,0-.87-.09-1.28-.12Zm30.25-.75a9.53,9.53,0,0,1-1.29.18V150.78a9.53,9.53,0,0,1,1.29.18Zm25.69-6.69c-.44.18-.88.33-1.31.5V157.15c.43.18.87.35,1.31.49Zm28.79-15.62c-.44.3-.88.62-1.29.94v-201l1.29.93Zm28.82-29.6c-.41.61-.85,1.22-1.29,1.84V201c.44.62.88,1.23,1.29,1.84Z" transform="translate(-250.16 -133.74)"/></g><path id="percent100" class="cls-4" d="M457.52,375.66a123.31,123.31,0,0,1-136.44,0Z" transform="translate(-250.16 -133.74)"/><path id="percent90" class="cls-4" d="M484.52,351.31a124.24,124.24,0,0,1-24.87,22.89H318.92a123.28,123.28,0,0,1-24.84-22.89Z" transform="translate(-250.16 -133.74)"/><path id="percent80" class="cls-4" d="M500.17,326.94a120.59,120.59,0,0,1-14.48,22.91H292.91a122.24,122.24,0,0,1-14.51-22.91Z" transform="translate(-250.16 -133.74)"/><path id="percent70" class="cls-4" d="M509.23,300.28a119.54,119.54,0,0,1-8.7,25.2H277.36a119.54,119.54,0,0,1-8.7-25.2Z" transform="translate(-250.16 -133.74)"/><path id="percent60" class="cls-4" d="M512.3,273.62a122.89,122.89,0,0,1-2.75,25.2H268.33a123.59,123.59,0,0,1-2.74-25.2Z" transform="translate(-250.16 -133.74)"/><path id="percent50" class="cls-4" d="M512.3,272.16H265.59a125.38,125.38,0,0,1,2.54-24.29H509.76A126.16,126.16,0,0,1,512.3,272.16Z" transform="translate(-250.16 -133.74)"/><path id="percent40" class="cls-4" d="M509.44,246.41h-241a122.68,122.68,0,0,1,8-24.29H501.41A122.68,122.68,0,0,1,509.44,246.41Z" transform="translate(-250.16 -133.74)"/><path id="percent30" class="cls-4" d="M500.71,220.66H277.18a123.18,123.18,0,0,1,13.93-22.89h195.7A123,123,0,0,1,500.71,220.66Z" transform="translate(-250.16 -133.74)"/><path id="percent20" class="cls-4" d="M485.67,196.31H292.22a124.67,124.67,0,0,1,22.13-21.66H463.54A123.64,123.64,0,0,1,485.67,196.31Z" transform="translate(-250.16 -133.74)"/><path id="percent10" class="cls-4" d="M461.58,173.19H316.3a123.38,123.38,0,0,1,145.28,0Z" transform="translate(-250.16 -133.74)"/><g id="keg-tap"><ellipse id="Ellipse_96" data-name="Ellipse 96" class="cls-5" cx="141.56" cy="217.59" rx="17.52" ry="16.94"/><ellipse id="Ellipse_97" data-name="Ellipse 97" class="cls-6" cx="141.56" cy="217.59" rx="14.85" ry="14.36"/><path id="Path_499" data-name="Path 499" class="cls-7" d="M385.94,361h10.92v11.38a8,8,0,0,1-10.92,0Z" transform="translate(-250.16 -133.74)"/><path id="Path_500" data-name="Path 500" class="cls-8" d="M366.31,319.57s2.32-12.93,17.59-2.38a25.53,25.53,0,0,0,16.18-.48s9.22-9.19,15.76.88c0,0,1.48,8.58-6.19,8.38a30.8,30.8,0,0,1-11.54-2.52,2.63,2.63,0,0,0-2.83,2.42,2.18,2.18,0,0,0,0,.57l.07,3.34h-8l-.07-3.27a2.77,2.77,0,0,0-2.37-3.12,2.7,2.7,0,0,0-1.29.13S366.38,331.68,366.31,319.57Z" transform="translate(-250.16 -133.74)"/><path id="Path_501" data-name="Path 501" class="cls-9" d="M386.93,331.51h8.94s-.07,6.63,4.49,6.91v21.23a3.8,3.8,0,0,1-3.52,3.67h-11s-3.1-.48-3.38-3.2V338.66a5.84,5.84,0,0,0,4.57-6.88A1.31,1.31,0,0,0,386.93,331.51Z" transform="translate(-250.16 -133.74)"/><rect id="Rectangle_123" data-name="Rectangle 123" class="cls-10" x="136.07" y="195.73" width="10.34" height="2.25" rx="0.41"/></g></svg>