<svg id="pos" xmlns="http://www.w3.org/2000/svg" viewBox="0 0 86.46 214.17"><defs><style>.cls-1{fill:#9d9d9c;}.cls-1,.cls-2,.cls-3,.cls-4,.cls-5,.cls-9{stroke:#1d1d1b;stroke-miterlimit:10;}.cls-2{fill:#fff;}.cls-3{fill:#3c3c3b;}.cls-4{fill:#009640;}.cls-5{fill:#e30613;}.cls-6{fill:#003510;}.cls-7{fill:#450500;}.cls-8{fill:#706f6f;}.cls-9{fill:none;stroke-width:0.75px;}.cls-10{fill:#1d1d1b;}</style></defs><rect class="cls-1" x="0.5" y="71.83" width="85.46" height="141.84" rx="10.21"/><rect class="cls-2" x="13.19" y="89.88" width="60.09" height="29.19"/><rect class="cls-3" x="8.03" y="135.47" width="14.31" height="7.87" rx="2.75"/><rect class="cls-3" x="27.6" y="135.47" width="14.31" height="7.87" rx="2.75"/><rect class="cls-3" x="47.16" y="135.47" width="14.31" height="7.87" rx="2.75"/><rect class="cls-3" x="66.12" y="135.47" width="14.31" height="7.87" rx="2.75"/><rect class="cls-3" x="8.03" y="152.5" width="14.31" height="7.87" rx="2.75"/><rect class="cls-3" x="27.6" y="152.5" width="14.31" height="7.87" rx="2.75"/><rect class="cls-3" x="47.16" y="152.5" width="14.31" height="7.87" rx="2.75"/><rect class="cls-3" x="66.12" y="152.5" width="14.31" height="7.87" rx="2.75"/><rect class="cls-3" x="8.03" y="168.67" width="14.31" height="7.87" rx="2.75"/><rect class="cls-3" x="27.6" y="168.67" width="14.31" height="7.87" rx="2.75"/><rect class="cls-3" x="47.16" y="168.67" width="14.31" height="7.87" rx="2.75"/><rect class="cls-3" x="66.12" y="168.67" width="14.31" height="7.87" rx="2.75"/><rect class="cls-3" x="17.05" y="77.56" width="52.85" height="4.94" rx="1.49"/><rect class="cls-4" x="48.89" y="188.86" width="20.77" height="11.42" rx="2.94"/><rect class="cls-5" x="16.8" y="188.86" width="20.77" height="11.42" rx="2.94"/><path class="cls-2" d="M440.63,157.64c-12.09-2.55-6.3,41-6.3,41v36.25H386.5V198.66s-1.19-44.77,17.53-43.23Z" transform="translate(-366.39 -154.89)"/><rect class="cls-6" x="422.78" y="348.8" width="1.79" height="4.89" rx="0.89" transform="translate(-492.92 183.91) rotate(-38.36)"/><rect class="cls-6" x="426.13" y="345.16" width="1.79" height="9.05" rx="0.89" transform="translate(-48.14 -346.31) rotate(39.32)"/><rect class="cls-7" x="392.63" y="344.95" width="1.79" height="9.05" rx="0.89" transform="translate(15.68 -331.59) rotate(47.15)"/><rect class="cls-7" x="392.54" y="344.87" width="1.79" height="9.05" rx="0.89" transform="translate(549.77 134.44) rotate(131.84)"/><path class="cls-8" d="M425.5,248.47Z" transform="translate(-366.39 -154.89)"/><path class="cls-9" d="M396,168.41s2.13,6,8.72.51c0,0,2.13,8,9.79,2.31,0,0,4.57,7.78,9.69,1,0,0,.27,5.23,3.08,1" transform="translate(-366.39 -154.89)"/><path class="cls-9" d="M394,180.6s2.12,6,8.72.51c0,0,2.13,7.95,9.79,2.32,0,0,4.56,7.77,9.68,1,0,0,.27,5.24,3.08,1" transform="translate(-366.39 -154.89)"/><path class="cls-9" d="M393.06,191.28s2.13,6,8.72.51c0,0,2.13,8,9.79,2.32,0,0,4.57,7.77,9.69,1,0,0,.27,5.24,3.08,1" transform="translate(-366.39 -154.89)"/><path class="cls-9" d="M394.23,203.66s2.13,6,8.72.51c0,0,2.14,8,9.79,2.31,0,0,4.57,7.77,9.69,1,0,0,.27,5.23,3.08,1" transform="translate(-366.39 -154.89)"/><path class="cls-9" d="M395.57,213.36s2.13,6,8.72.51c0,0,2.14,7.94,9.8,2.31,0,0,4.56,7.77,9.68,1,0,0,.27,5.23,3.08,1" transform="translate(-366.39 -154.89)"/><path class="cls-10" d="M395.83,266.65a9.1,9.1,0,0,1-3.76.68c-4,0-7.05-2.54-7.05-7.21a7.1,7.1,0,0,1,7.45-7.49,7.54,7.54,0,0,1,3.38.64l-.44,1.5a6.69,6.69,0,0,0-2.88-.59c-3.34,0-5.56,2.13-5.56,5.88,0,3.49,2,5.73,5.48,5.73a7.51,7.51,0,0,0,3-.59Z" transform="translate(-366.39 -154.89)"/><path class="cls-10" d="M400.52,262.64,399,267.12h-1.9L402,252.87h2.22l4.87,14.25h-2l-1.52-4.48Zm4.68-1.44-1.4-4.1c-.32-.94-.53-1.78-.74-2.61h0c-.21.85-.45,1.72-.72,2.58l-1.4,4.13Z" transform="translate(-366.39 -154.89)"/><path class="cls-10" d="M411.16,253.06a19.13,19.13,0,0,1,3.53-.3c2,0,3.23.36,4.12,1.16a3.56,3.56,0,0,1,1.12,2.71,3.75,3.75,0,0,1-2.68,3.64v.06a3.56,3.56,0,0,1,2.09,2.88,22.65,22.65,0,0,0,1.1,3.91h-1.9a18.25,18.25,0,0,1-1-3.41c-.42-2-1.18-2.7-2.85-2.77H413v6.18h-1.84Zm1.84,6.49h1.88c2,0,3.21-1.08,3.21-2.71,0-1.84-1.33-2.64-3.28-2.66a7.21,7.21,0,0,0-1.81.17Z" transform="translate(-366.39 -154.89)"/><path class="cls-10" d="M422.53,253.06a26.15,26.15,0,0,1,3.91-.3c2.65,0,4.53.61,5.78,1.78a6.55,6.55,0,0,1,2,5.11,7.54,7.54,0,0,1-2.06,5.55c-1.33,1.33-3.53,2.05-6.3,2.05a31.08,31.08,0,0,1-3.34-.17Zm1.84,12.6a11,11,0,0,0,1.86.11c3.93,0,6.07-2.2,6.07-6,0-3.37-1.88-5.5-5.77-5.5a10.23,10.23,0,0,0-2.16.19Z" transform="translate(-366.39 -154.89)"/></svg>